<svg width="476" height="476" viewBox="0 0 476 476" fill="none" xmlns="http://www.w3.org/2000/svg">
<path d="M54.6443 179.968L63.3864 195.18C71.1055 208.629 83.7537 218.554 98.7268 222.82L152.574 238.125C168.571 242.67 179.545 257.232 179.545 273.835V310.844C179.545 321.047 185.311 330.322 194.425 334.867C203.539 339.412 209.305 348.687 209.305 358.89V395.064C209.305 409.534 223.162 420.015 237.113 416.026C252.086 411.76 263.711 399.794 267.524 384.676L270.128 374.287C274.034 358.612 284.264 345.163 298.307 337.186L305.84 332.919C319.79 325.035 328.347 310.194 328.347 294.241V286.542C328.347 274.762 323.604 263.447 315.233 255.099L311.606 251.481C303.236 243.133 291.89 238.403 280.079 238.403H239.996C229.672 238.403 219.442 235.713 210.421 230.612L178.336 212.339C174.337 210.02 171.268 206.31 169.78 201.951C166.804 193.046 170.803 183.4 179.266 179.226L184.753 176.444C190.891 173.383 198.052 172.826 204.562 175.052L226.138 182.194C233.764 184.699 242.135 181.823 246.506 175.238C250.877 168.745 250.412 160.119 245.39 154.09L232.741 138.971C223.441 127.841 223.534 111.609 233.02 100.664L247.622 83.6898C255.806 74.1362 257.108 60.5014 250.877 49.6492L248.645 45.7535C245.39 45.568 242.228 45.4753 238.973 45.4753C152.667 45.4753 79.4756 101.962 54.6443 179.968ZM432.508 238.403C432.508 204.27 423.58 172.177 407.956 144.258L384.147 153.812C369.546 159.655 362.013 175.887 366.942 190.728L382.659 237.754C385.914 247.4 393.819 254.728 403.678 257.139L430.741 263.91C431.857 255.562 432.415 247.029 432.415 238.403H432.508ZM0.982666 238.403C0.982666 175.427 26.0663 115.031 70.7155 70.5008C115.365 25.9704 175.922 0.953491 239.066 0.953491C302.209 0.953491 362.766 25.9704 407.416 70.5008C452.065 115.031 477.148 175.427 477.148 238.403C477.148 301.379 452.065 361.775 407.416 406.305C362.766 450.836 302.209 475.853 239.066 475.853C175.922 475.853 115.365 450.836 70.7155 406.305C26.0663 361.775 0.982666 301.379 0.982666 238.403Z" fill="#86BBD8"/>
</svg>
