<svg width="476" height="476" viewBox="0 0 476 476" fill="none" xmlns="http://www.w3.org/2000/svg">
<path d="M243.521 476.421C242.037 476.449 240.552 476.463 239.066 476.463C237.579 476.463 236.093 476.449 234.61 476.421C236.092 476.449 237.577 476.463 239.066 476.463C240.554 476.463 242.039 476.449 243.521 476.421ZM75.1809 411.086C118.283 451.987 175.155 475.31 234.61 476.421C172.866 475.288 116.867 450.654 75.1809 411.086ZM400.911 412.999C359.447 451.446 304.264 475.307 243.521 476.421C302.042 475.327 358.063 452.714 400.911 412.999ZM238.973 44.979C242.228 44.979 245.39 45.0713 248.645 45.2573L250.876 49.1636C257.107 60.0437 255.805 73.7133 247.621 83.2915L233.021 100.309C223.535 111.282 223.441 127.556 232.741 138.715L245.39 153.873C250.412 159.917 250.877 168.565 246.506 175.075C242.135 181.677 233.764 184.56 226.138 182.049L204.562 174.889C198.052 172.658 190.891 173.215 184.753 176.284L179.266 179.074C170.803 183.258 166.804 192.93 169.78 201.857C171.268 206.228 174.337 209.947 178.336 212.272L210.421 230.591C219.442 235.706 229.672 238.403 239.995 238.403H280.079C291.89 238.403 303.237 243.146 311.607 251.515L315.234 255.142C323.604 263.511 328.347 274.857 328.347 286.667V294.384C328.347 310.379 319.79 325.258 305.84 333.163L298.307 337.44C284.264 345.437 274.034 358.922 270.128 374.637L267.524 385.052C263.711 400.21 252.086 412.206 237.113 416.484C223.162 420.483 209.305 409.974 209.305 395.467V359.2C209.305 348.971 203.539 339.671 194.425 335.115C185.311 330.558 179.545 321.259 179.545 311.03V273.926C179.545 257.281 168.571 242.68 152.574 238.124L98.7268 222.78C83.7537 218.502 71.1051 208.553 63.386 195.069L54.6448 179.818C79.4761 101.611 152.668 44.979 238.973 44.979ZM402.949 411.086C402.332 411.672 401.712 412.255 401.088 412.834C401.711 412.256 402.332 411.673 402.949 411.086ZM74.8792 410.8C74.6758 410.607 74.4735 410.412 74.2708 410.217C74.4735 410.412 74.6758 410.607 74.8792 410.8ZM403.86 410.217C403.657 410.412 403.455 410.607 403.251 410.8C403.455 410.607 403.657 410.412 403.86 410.217ZM405.01 409.107C404.775 409.336 404.539 409.565 404.303 409.792C404.539 409.565 404.775 409.336 405.01 409.107ZM73.8225 409.788C73.7115 409.681 73.6013 409.573 73.4905 409.465C73.6013 409.573 73.7115 409.681 73.8225 409.788ZM71.7288 407.744C72.3128 408.321 72.9005 408.894 73.4905 409.465C72.913 408.906 72.3373 408.345 71.7649 407.78L71.7288 407.744ZM406.366 407.78C406.263 407.882 406.159 407.983 406.056 408.084C406.171 407.971 406.287 407.858 406.403 407.744L406.366 407.78ZM68.7083 404.706C69.373 405.386 70.0415 406.064 70.7151 406.738C70.0419 406.065 69.3734 405.387 68.7083 404.706ZM409.423 404.706C408.828 405.315 408.229 405.922 407.627 406.525C407.905 406.246 408.182 405.968 408.458 405.688L409.423 404.706ZM0.987549 239.882C1.3688 301.311 25.4848 360.189 68.2424 404.226C26.9457 361.7 1.39211 303.805 0.987549 239.943V239.882ZM477.144 239.943C476.742 303.335 451.56 360.848 410.797 403.286C452.988 359.353 476.765 300.875 477.144 239.882V239.943ZM407.955 144.016C423.579 172.007 432.508 204.182 432.508 238.403H432.415C432.415 247.051 431.857 255.607 430.74 263.976L403.678 257.187C393.82 254.769 385.915 247.423 382.659 237.752L366.942 190.605C362.013 175.726 369.547 159.453 384.148 153.594L407.955 144.016ZM66.3655 74.5337C24.4405 118.707 0.982705 177.346 0.982666 238.403C0.982706 174.906 25.8447 117.216 66.3655 74.5337ZM411.765 74.5337C452.286 117.216 477.149 174.906 477.149 238.403C477.149 177.346 453.69 118.707 411.765 74.5337ZM68.6497 72.1597C68.1172 72.7053 67.5884 73.254 67.0618 73.8042C67.5887 73.2538 68.1175 72.705 68.6497 72.1597ZM410.609 73.3237C410.899 73.6258 411.19 73.9284 411.479 74.2319C411.19 73.9284 410.899 73.6259 410.609 73.3237ZM409.476 72.1538C409.809 72.4948 410.14 72.8372 410.471 73.1802C410.14 72.8372 409.809 72.495 409.476 72.1538ZM69.7092 71.0815C69.6858 71.1053 69.6624 71.1291 69.6389 71.1528C69.6504 71.1412 69.6616 71.1293 69.6731 71.1177L69.7092 71.0815ZM408.458 71.1177C408.47 71.1293 408.481 71.1412 408.492 71.1528C408.469 71.1291 408.446 71.1053 408.422 71.0815L408.458 71.1177ZM71.7288 69.062L70.7151 70.0688C71.2776 69.5063 71.8438 68.9474 72.4114 68.3911C72.1836 68.6144 71.9557 68.8378 71.7288 69.062ZM406.366 69.0259L407.415 70.0688C406.972 69.6252 406.526 69.1838 406.078 68.7437C406.174 68.8379 406.271 68.9314 406.366 69.0259ZM404.303 67.0132C404.898 67.5868 405.489 68.1639 406.078 68.7437C405.489 68.1637 404.898 67.5864 404.303 67.0132ZM72.802 68.0073C73.1414 67.6762 73.4821 67.3462 73.8235 67.0171C73.4822 67.3461 73.1415 67.6761 72.802 68.0073ZM74.7288 66.1499C74.7767 66.1041 74.8243 66.0579 74.8723 66.0122C74.8243 66.0579 74.7767 66.1041 74.7288 66.1499ZM403.258 66.0122C403.306 66.0581 403.354 66.104 403.403 66.1499C403.354 66.104 403.306 66.0581 403.258 66.0122ZM75.3147 65.5933C75.5273 65.3918 75.7391 65.1895 75.9524 64.9888C75.7391 65.1894 75.5274 65.3918 75.3147 65.5933ZM402.188 64.9985C402.398 65.1963 402.607 65.3948 402.817 65.5933C402.607 65.3948 402.398 65.1962 402.188 64.9985ZM234.61 0.383301C175.605 1.48641 119.144 24.4667 76.1614 64.7935C117.743 25.7678 173.349 1.50762 234.61 0.383301ZM243.521 0.383301C304.74 1.50669 360.312 25.735 401.885 64.7144C358.913 24.4366 302.487 1.48552 243.521 0.383301ZM239.066 0.342285C237.642 0.342285 236.22 0.35494 234.799 0.380371C236.218 0.355435 237.641 0.342285 239.066 0.342285ZM240.606 0.347168C241.515 0.352931 242.424 0.364431 243.331 0.380371C241.911 0.354949 240.489 0.342286 239.066 0.342285L240.606 0.347168ZM406.056 408.084C405.814 408.322 405.572 408.56 405.329 408.797C405.572 408.56 405.814 408.323 406.056 408.084ZM410.797 403.286C410.689 403.398 410.581 403.51 410.473 403.622C410.581 403.51 410.689 403.398 410.797 403.286ZM408.492 71.1528C408.821 71.4857 409.149 71.8191 409.476 72.1538C409.149 71.8191 408.821 71.4858 408.492 71.1528ZM72.4114 68.3911C72.5418 68.2633 72.6713 68.1348 72.802 68.0073C72.6714 68.1348 72.5418 68.2633 72.4114 68.3911Z" fill="#9EE493"/>
</svg>
